<svg width="0" height="0" class="hidden">
  <symbol version="1.1" id="volume-off" xmlns="http://www.w3.org/2000/svg" xmlns:xlink="http://www.w3.org/1999/xlink" x="0px" y="0px" enable-background="new 0 0 92 92" xml:space="preserve" viewBox="0 0 92 92">
    <path id="XMLID_788_" d="M40.3,4.3c-1.5-0.6-3.3-0.2-4.5,0.9L16.5,25H7c-2.2,0-4,1.8-4,4V63c0,2.2,1.8,4,4,4h9.5l19.2,19.8
	c0.8,0.8,1.8,1.2,2.9,1.2c0.5,0,1.2-0.1,1.7-0.3c1.5-0.6,2.7-2.1,2.7-3.7V8C43,6.4,41.8,4.9,40.3,4.3z M35,74.2L21.2,60.2
	c-0.8-0.8-2-1.2-3.1-1.2H11V33h7.2c1.1,0,2.3-0.5,3.1-1.2L35,17.8V74.2z M87.9,58c1.5,1.6,1.5,4.1-0.1,5.7C87,64.4,86,64.8,85,64.8
	c-1,0-2.1-0.4-2.9-1.2L70.6,51.7L59.1,63.6c-0.8,0.8-1.8,1.2-2.9,1.2c-1,0-2-0.4-2.8-1.1c-1.6-1.5-1.6-4.1-0.1-5.7L65,46L53.4,34
	c-1.5-1.6-1.5-4.1,0.1-5.7c1.6-1.5,4.1-1.5,5.7,0.1l11.5,11.8l11.5-11.8c1.5-1.6,4.1-1.6,5.7-0.1c1.6,1.5,1.6,4.1,0.1,5.7L76.2,46
	L87.9,58z"></path>
  </symbol>
  <symbol version="1.1" id="media-next" xmlns="http://www.w3.org/2000/svg" xmlns:xlink="http://www.w3.org/1999/xlink" x="0px" y="0px" enable-background="new 0 0 92 92" xml:space="preserve" viewBox="0 0 92 92">
    <path id="XMLID_659_" d="M59.5,42.9l-42-33c-1.2-0.9-2.8-1.1-4.2-0.5C11.9,10.1,11,11.5,11,13v66c0,1.5,0.9,2.9,2.3,3.6
	c0.6,0.3,1.2,0.4,1.7,0.4c0.9,0,1.8-0.3,2.5-0.9l42-33c1-0.8,1.5-1.9,1.5-3.1C61,44.8,60.4,43.6,59.5,42.9z M19,70.8V21.2L50.5,46
	L19,70.8z M81,14.6v63.5c0,2.5-2,4.5-4.5,4.5s-4.5-2-4.5-4.5V14.6c0-2.5,2-4.5,4.5-4.5S81,12.1,81,14.6z"></path>
  </symbol>
  <symbol version="1.1" id="media-pause" xmlns="http://www.w3.org/2000/svg" xmlns:xlink="http://www.w3.org/1999/xlink" x="0px" y="0px" enable-background="new 0 0 92 92" xml:space="preserve" viewBox="0 0 92 92">
    <path id="XMLID_698_" d="M33,13v66c0,2.8-2.2,5-5,5s-5-2.2-5-5V13c0-2.8,2.2-5,5-5S33,10.2,33,13z M64,8c-2.8,0-5,2.2-5,5v66
	c0,2.8,2.2,5,5,5s5-2.2,5-5V13C69,10.2,66.8,8,64,8z"></path>
  </symbol>
  <symbol version="1.1" id="media-play" xmlns="http://www.w3.org/2000/svg" xmlns:xlink="http://www.w3.org/1999/xlink" x="0px" y="0px" enable-background="new 0 0 92 92" xml:space="preserve" viewBox="0 0 92 92">
    <path id="XMLID_675_" d="M69.5,42.9l-42-33c-1.2-0.9-2.8-1.1-4.2-0.5C21.9,10.1,21,11.5,21,13v66c0,1.5,0.9,2.9,2.3,3.6
	c0.6,0.3,1.2,0.4,1.7,0.4c0.9,0,1.8-0.3,2.5-0.9l42-33c1-0.8,1.5-1.9,1.5-3.1S70.4,43.6,69.5,42.9z M29,70.8V21.2L60.5,46L29,70.8z"></path>
  </symbol>
  <symbol version="1.1" id="media-previous" xmlns="http://www.w3.org/2000/svg" xmlns:xlink="http://www.w3.org/1999/xlink" x="0px" y="0px" enable-background="new 0 0 92 92" xml:space="preserve" viewBox="0 0 92 92">
    <path id="XMLID_646_" d="M78.7,9.4c-1.4-0.7-3-0.5-4.2,0.5L33,42.9c-1,0.8-1.5,1.9-1.5,3.1s0.6,2.4,1.5,3.1l41.5,33
	c0.7,0.6,1.6,0.9,2.5,0.9c0.6,0,1.2-0.1,1.7-0.4c1.4-0.7,2.3-2.1,2.3-3.6V13C81,11.5,80.1,10.1,78.7,9.4z M73,70.7L41.9,46L73,21.3
	V70.7z M19,14.6v63.5c0,2.5-2,4.5-4.5,4.5s-4.5-2-4.5-4.5V14.6c0-2.5,2-4.5,4.5-4.5S19,12.1,19,14.6z"></path>
  </symbol>
  <symbol version="1.1" id="menu" xmlns="http://www.w3.org/2000/svg" xmlns:xlink="http://www.w3.org/1999/xlink" x="0px" y="0px" enable-background="new 0 0 92 92" xml:space="preserve" viewBox="0 0 92 92">
    <path id="XMLID_101_" d="M78,23.5H14c-3.6,0-6.5-2.9-6.5-6.5s2.9-6.5,6.5-6.5h64c3.6,0,6.5,2.9,6.5,6.5S81.6,23.5,78,23.5z M84.5,46
	c0-3.6-2.9-6.5-6.5-6.5H14c-3.6,0-6.5,2.9-6.5,6.5s2.9,6.5,6.5,6.5h64C81.6,52.5,84.5,49.6,84.5,46z M84.5,75c0-3.6-2.9-6.5-6.5-6.5
	H14c-3.6,0-6.5,2.9-6.5,6.5s2.9,6.5,6.5,6.5h64C81.6,81.5,84.5,78.6,84.5,75z"></path>
  </symbol>
  <symbol version="1.1" id="volume-full" xmlns="http://www.w3.org/2000/svg" xmlns:xlink="http://www.w3.org/1999/xlink" x="0px" y="0px" enable-background="new 0 0 92 92" xml:space="preserve" viewBox="0 0 92 92">
    <path id="XMLID_749_" d="M37.7,4.3c-1.5-0.6-3.1-0.3-4.3,0.9L13.7,25H4c-2.2,0-4,1.8-4,4V63c0,2.2,1.8,4,4,4h9.8l19.7,19.8
	c0.8,0.8,1.8,1.2,2.8,1.2c0.5,0,0.9-0.1,1.4-0.3c1.5-0.6,2.3-2.1,2.3-3.7V8C40,6.4,39.2,4.9,37.7,4.3z M32,74.3L18.1,60.2
	c-0.8-0.8-1.6-1.2-2.7-1.2H8V33h7.4c1.1,0,1.9-0.4,2.7-1.2L32,17.7V74.3z M53.2,62.9c-0.8,0.9-1.9,1.3-3,1.3c-0.9,0-1.9-0.3-2.7-1
	c-1.6-1.5-1.8-4-0.3-5.6c10-11.2,1-22,0-23.2c-1.5-1.7-1.3-4.2,0.3-5.6c1.6-1.5,4.2-1.3,5.6,0.3C58.4,34.9,65.2,49.5,53.2,62.9z
	 M65.3,73.6c-0.8,0.9-1.9,1.3-3,1.3c-0.9,0-1.9-0.3-2.7-1c-1.6-1.5-1.8-4-0.3-5.6c19.7-22.1,0.8-43.7,0-44.6
	C57.8,22,58,19.5,59.6,18c1.6-1.5,4.2-1.3,5.7,0.3C65.5,18.6,89.7,46.3,65.3,73.6z M77.9,81.7c-0.8,0.9-1.9,1.3-3,1.3
	c-0.9,0-1.9-0.3-2.7-1c-1.6-1.5-1.8-4-0.3-5.6c11.2-12.6,14.7-26.6,10.2-41.5c-3.4-11.4-10.1-19-10.2-19.1c-1.5-1.6-1.3-4.2,0.3-5.6
	c1.6-1.5,4.2-1.3,5.7,0.3C78.2,10.7,109.4,46.4,77.9,81.7z"></path>
  </symbol>
</svg>